HIERARCHY
ROOT hip
{
  OFFSET 1.77447 88.4679 -15.7696
  CHANNELS 6 Xposition Yposition Zposition Zrotation Xrotation Yrotation
  JOINT abdomen
  {
    OFFSET 0 6.09653 0.699602
    CHANNELS 3 Zrotation Xrotation Yrotation
    JOINT chest
    {
      OFFSET 0 2.49857 -0.699602
      CHANNELS 3 Zrotation Xrotation Yrotation
      JOINT rCollar
      {
        OFFSET -1.49915 11.2936 -1.69903
        CHANNELS 3 Zrotation Xrotation Yrotation
        JOINT rShldr
        {
          OFFSET -4.89721 -0.299829 0.799545
          CHANNELS 3 Zrotation Xrotation Yrotation
          JOINT rForeArm
          {
            OFFSET -12.4216 -1.19922 0.931564
            CHANNELS 3 Zrotation Xrotation Yrotation
            JOINT rHand
            {
              OFFSET -9.86568 0.0998477 3.66582
              CHANNELS 3 Zrotation Xrotation Yrotation
              JOINT rPinky1
              {
                OFFSET -3.29812 0.0999423 -0.399772
                CHANNELS 3 Zrotation Xrotation Yrotation
                JOINT rPinky2
                {
                  OFFSET -0.899492 -0.0999405 0
                  CHANNELS 3 Zrotation Xrotation Yrotation
                  End Site
                  {
                    OFFSET -0.999429 -0.0999421 0
                  }
                }
              }
              JOINT rRing1
              {
                OFFSET -3.39807 0.399775 0.299829
                CHANNELS 3 Zrotation Xrotation Yrotation
                JOINT rRing2
                {
                  OFFSET -1.29926 -0.199888 0.399772
                  CHANNELS 3 Zrotation Xrotation Yrotation
                  End Site
                  {
                    OFFSET -0.899487 -0.0999402 0.199886
                  }
                }
              }
              JOINT rMid1
              {
                OFFSET -2.99829 0.499717 1.09937
                CHANNELS 3 Zrotation Xrotation Yrotation
                JOINT rMid2
                {
                  OFFSET -1.45827 -0.0999391 0.600149
                  CHANNELS 3 Zrotation Xrotation Yrotation
                  End Site
                  {
                    OFFSET -1.0403 -0.0999474 0.399282
                  }
                }
              }
              JOINT rIndex1
              {
                OFFSET -2.69847 0.399775 2.09881
                CHANNELS 3 Zrotation Xrotation Yrotation
                JOINT rIndex2
                {
                  OFFSET -1.33823 -0.200883 0.6843
                  CHANNELS 3 Zrotation Xrotation Yrotation
                  End Site
                  {
                    OFFSET -0.760569 0.00099747 0.415074
                  }
                }
              }
              JOINT rThumb1
              {
                OFFSET -0.399773 -0.39977 1.19932
                CHANNELS 3 Zrotation Xrotation Yrotation
                JOINT rThumb2
                {
                  OFFSET -0.998132 0 1.47145
                  CHANNELS 3 Zrotation Xrotation Yrotation
                  End Site
                  {
                    OFFSET -0.977841 -0.278837 0.829828
                  }
                }
              }
            }
          }
        }
      }
      JOINT lCollar
      {
        OFFSET 1.49915 11.2936 -1.69903
        CHANNELS 3 Zrotation Xrotation Yrotation
        JOINT lShldr
        {
          OFFSET 4.89721 -0.299833 0.799545
          CHANNELS 3 Zrotation Xrotation Yrotation
          JOINT lForeArm
          {
            OFFSET 12.4216 -1.19922 0.931564
            CHANNELS 3 Zrotation Xrotation Yrotation
            JOINT lHand
            {
              OFFSET 9.86568 0.0998482 3.66582
              CHANNELS 3 Zrotation Xrotation Yrotation
              JOINT lIndex1
              {
                OFFSET 2.69846 0.399775 2.09881
                CHANNELS 3 Zrotation Xrotation Yrotation
                JOINT lIndex2
                {
                  OFFSET 1.33823 -0.200884 0.6843
                  CHANNELS 3 Zrotation Xrotation Yrotation
                  End Site
                  {
                    OFFSET 0.760567 0.00099574 0.415074
                  }
                }
              }
              JOINT lMid1
              {
                OFFSET 2.99829 0.499714 1.09937
                CHANNELS 3 Zrotation Xrotation Yrotation
                JOINT lMid2
                {
                  OFFSET 1.45827 -0.0999388 0.600149
                  CHANNELS 3 Zrotation Xrotation Yrotation
                  End Site
                  {
                    OFFSET 1.04031 -0.0999473 0.399282
                  }
                }
              }
              JOINT lThumb1
              {
                OFFSET 0.399772 -0.399773 1.19932
                CHANNELS 3 Zrotation Xrotation Yrotation
                JOINT lThumb2
                {
                  OFFSET 0.99813 0 1.47145
                  CHANNELS 3 Zrotation Xrotation Yrotation
                  End Site
                  {
                    OFFSET 0.97784 -0.27884 0.829828
                  }
                }
              }
              JOINT lPinky1
              {
                OFFSET 3.29812 0.0999421 -0.399772
                CHANNELS 3 Zrotation Xrotation Yrotation
                JOINT lPinky2
                {
                  OFFSET 0.899488 -0.0999427 0
                  CHANNELS 3 Zrotation Xrotation Yrotation
                  End Site
                  {
                    OFFSET 0.999427 -0.0999418 0
                  }
                }
              }
              JOINT lRing1
              {
                OFFSET 3.39806 0.399773 0.299829
                CHANNELS 3 Zrotation Xrotation Yrotation
                JOINT lRing2
                {
                  OFFSET 1.29926 -0.199886 0.399772
                  CHANNELS 3 Zrotation Xrotation Yrotation
                  End Site
                  {
                    OFFSET 0.899489 -0.0999425 0.199886
                  }
                }
              }
            }
          }
        }
      }
      JOINT neck
      {
        OFFSET 0 12.4929 -0.499715
        CHANNELS 3 Zrotation Xrotation Yrotation
        JOINT head
        {
          OFFSET 0 3.59795 0.299829
          CHANNELS 3 Zrotation Xrotation Yrotation
          JOINT leftEye
          {
            OFFSET 1.19932 3.69789 3.19818
            CHANNELS 3 Zrotation Xrotation Yrotation
            End Site
            {
              OFFSET 0 0 0
            }
          }
          JOINT rightEye
          {
            OFFSET -1.19932 3.69789 3.19818
            CHANNELS 3 Zrotation Xrotation Yrotation
            End Site
            {
              OFFSET 0 0 0
            }
          }
        }
      }
    }
  }
  JOINT rButtock
  {
    OFFSET -4.19761 -0.599656 -0.299829
    CHANNELS 3 Zrotation Xrotation Yrotation
    JOINT rThigh
    {
      OFFSET 0 -1.49915 0
      CHANNELS 3 Zrotation Xrotation Yrotation
      JOINT rShin
      {
        OFFSET 0.699602 -17.6899 -1.09938
        CHANNELS 3 Zrotation Xrotation Yrotation
        JOINT rFoot
        {
          OFFSET -0.699602 -18.0897 -0.699602
          CHANNELS 3 Zrotation Xrotation Yrotation
          End Site
          {
            OFFSET 0 -2.09881 5.59681
          }
        }
      }
    }
  }
  JOINT lButtock
  {
    OFFSET 4.19761 -0.599656 -0.299829
    CHANNELS 3 Zrotation Xrotation Yrotation
    JOINT lThigh
    {
      OFFSET 0 -1.49914 0
      CHANNELS 3 Zrotation Xrotation Yrotation
      JOINT lShin
      {
        OFFSET -0.699602 -17.6899 -1.09937
        CHANNELS 3 Zrotation Xrotation Yrotation
        JOINT lFoot
        {
          OFFSET 0.699602 -18.0897 -0.699602
          CHANNELS 3 Zrotation Xrotation Yrotation
          End Site
          {
            OFFSET 0 -2.0988 5.59681
          }
        }
      }
    }
  }
}
MOTION
Frames:	4
Frame Time:	0.0333333
1.77447 88.4679 -15.7696 3.67133 6.95385 -2.97714 -0.00975517 -0.00975351 -0.00975351 -0.979275 5.90823 -1.04256 3.7342 0.360098 8.69367 36.9917 15.5042 -3.18904 -7.606 -1.72247 80.5274 12.8617 2.81811 -14.9151 1.83969 1.02684 28.0275 0.629423 -0.00953168 -0.000952461 1.84463 1.02332 28.0095 2.42704 -0.497593 4.4329 1.83855 1.02151 28.0115 -0.243675 0.394432 1.44876 1.84104 1.04198 28.023 8.61171 -0.0019031 -1.79828 1.8765 1.0053 28.0257 -9.40282 -7.91099 -0.69994 3.02684 -0.401154 -20.332 -52.5491 26.0859 8.59703 34.1553 -9.85089 -82.3879 -12.849 1.69492 23.7077 -1.90212 1.0971 -28.0878 -8.62288 -0.0232654 1.79819 -1.91292 1.08254 -28.0857 0.181555 0.424301 -1.45108 -1.87818 1.06148 -28.0917 9.40787 -7.94586 0.599069 -1.89063 1.08193 -28.0686 -0.629806 -0.00995832 0.0010087 -1.90889 1.07498 -28.0899 -2.42843 -0.502406 -4.43241 1.06762 -5.89723 1.13971 -2.49859 -33.0612 -3.01111 0 0 0 0 0 0 -0.00975517 -0.00969887 -0.00983547 -79.2817 -82.1278 -80.3781 16.068 78.4716 -3.31206 -2.51776 4.1877 0.0273643 -0.00975517 -0.00983547 -0.00969887 56.2357 -82.3422 64.7337 -15.5726 77.7741 2.54696 2.11476 3.28329 -0.0153704 
1.7656 88.4613 -15.7178 3.7299 7.77416 -2.98688 -0.00975517 -0.00975351 -0.00975351 -0.911167 6.4454 -1.13025 3.68038 0.367383 9.03352 38.8221 14.559 0.531526 -7.13581 -1.84118 81.4505 12.9023 2.88668 -14.455 1.83969 1.02684 28.0275 0.629423 -0.00953168 -0.000952461 1.84463 1.02332 28.0095 2.42704 -0.497593 4.4329 1.83855 1.02151 28.0115 -0.243675 0.394432 1.44876 1.84104 1.04198 28.023 8.6117 -0.0019031 -1.79828 1.8765 1.0053 28.0257 -9.40282 -7.91099 -0.69994 3.2038 -0.450469 -20.4995 -54.0486 24.8383 3.79496 33.238 -8.87784 -81.6527 -11.2572 1.46059 23.641 -1.90212 1.0971 -28.0878 -8.62288 -0.0232654 1.79819 -1.91292 1.08254 -28.0857 0.181555 0.424301 -1.45108 -1.87818 1.06148 -28.0917 9.40787 -7.94586 0.599069 -1.89063 1.08193 -28.0686 -0.629806 -0.00995832 0.0010087 -1.90889 1.07498 -28.0899 -2.42843 -0.502406 -4.43241 1.01866 -6.44387 1.21906 -2.7975 -34.5795 -3.13036 0 0 0 0 0 0 -0.00975517 -0.00969887 -0.00983547 -85.1721 -82.3683 -86.1713 16.0407 78.472 -3.45737 -2.36901 4.16852 0.0165391 -0.00975517 -0.00983547 -0.00969887 60.7819 -83.0052 69.0787 -15.436 77.6911 2.71966 1.94376 3.41059 -0.00111281 
1.7426 88.4593 -15.6517 3.79823 8.63354 -3.00642 -0.00975517 -0.00975351 -0.00975351 -0.872375 7.03138 -1.20814 3.64102 0.383345 9.51592 41.4996 12.8642 4.31529 -4.76537 -1.31163 81.3732 12.067 2.54568 -15.6417 1.83969 1.02684 28.0275 0.629423 -0.00953168 -0.000952461 1.84463 1.02332 28.0095 2.42703 -0.497593 4.4329 1.83855 1.02151 28.0115 -0.243675 0.394432 1.44876 1.84104 1.04198 28.023 8.61169 -0.0019031 -1.79828 1.8765 1.0053 28.0257 -9.40282 -7.91099 -0.69994 3.34124 -0.491438 -20.767 -55.9099 22.6881 -1.1227 32.2017 -6.82075 -79.5519 -8.9194 1.0266 24.5291 -1.90212 1.0971 -28.0878 -8.62289 -0.0232654 1.79819 -1.91292 1.08254 -28.0857 0.181555 0.424301 -1.45108 -1.87818 1.06148 -28.0917 9.40787 -7.94586 0.599069 -1.89063 1.08193 -28.0686 -0.629806 -0.00995832 0.0010087 -1.90889 1.07498 -28.0899 -2.42843 -0.502406 -4.43241 1.01003 -7.02954 1.30803 -3.15924 -36.0956 -3.30143 0 0 0 0 0 0 -0.00975517 -0.00969887 -0.00983547 -91.7004 -82.5599 -92.592 16.0131 78.4732 -3.60868 -2.18035 4.13997 0.00296355 -0.00975517 -0.00983547 -0.00969887 66.6703 -83.6033 74.7469 -15.3219 77.627 2.91003 1.72427 3.49853 0.0159639 
1.7085 88.4575 -15.5696 3.8568 9.58081 -3.0253 -0.00975517 -0.00975351 -0.00975351 -0.862897 7.66617 -1.27624 3.60803 0.40149 10.0288 45.118 10.4204 8.22966 -1.88648 -0.44157 79.4225 10.7558 2.23944 -15.7398 1.83969 1.02684 28.0275 0.629424 -0.00953168 -0.000952461 1.84463 1.02332 28.0095 2.42701 -0.497593 4.4329 1.83855 1.02151 28.0115 -0.243675 0.394432 1.44876 1.84104 1.04198 28.023 8.61168 -0.0019031 -1.79828 1.8765 1.0053 28.0257 -9.40282 -7.91099 -0.69994 3.42237 -0.523288 -21.3458 -58.2342 19.5851 -6.00153 27.8725 -3.30124 -76.0121 -5.29099 0.520028 24.2928 -1.90212 1.0971 -28.0878 -8.6229 -0.0232654 1.79819 -1.91292 1.08254 -28.0857 0.181555 0.424301 -1.45108 -1.87818 1.06148 -28.0917 9.40787 -7.94586 0.599069 -1.89063 1.08193 -28.0686 -0.629806 -0.00995832 0.0010087 -1.90889 1.07498 -28.0899 -2.42842 -0.502406 -4.43241 1.01878 -7.6543 1.37805 -3.47841 -37.7674 -3.50731 0 0 0 0 0 0 -0.00975517 -0.00969887 -0.00983547 -99.0494 -82.6744 -99.8245 16.0129 78.5026 -3.82732 -2.00124 4.06262 -0.00877521 -0.00975517 -0.00983547 -0.00969887 74.4613 -84.1173 82.3009 -15.2421 77.5915 3.11298 1.48555 3.55723 0.0339704 
